<svg width="772" height="791" viewBox="0 0 772 791" fill="none" xmlns="http://www.w3.org/2000/svg">
<circle cx="612.5" cy="495.5" r="487" stroke="#F5F5F5"/>
<path d="M1083.62 855.156C1081.64 857.436 1078.5 858.863 1074.15 859.382C1069.55 859.929 1063.66 859.455 1056.49 857.943C1042.16 854.919 1022.86 847.773 998.896 836.554C950.98 814.118 886.044 776.145 809.918 726.039C733.795 675.936 648.881 615.278 562.807 549.517C476.733 483.756 392.199 414.955 316.802 349.296C241.404 283.636 177.511 223.182 130.862 173.365C107.537 148.456 88.8945 126.603 75.2435 108.227C61.5841 89.839 52.9517 74.9706 49.606 64.0254C47.933 58.5524 47.6134 54.1607 48.5486 50.8181C49.4749 47.5072 51.6464 45.173 55.1016 43.8097C58.583 42.4361 63.3772 42.0469 69.5041 42.7012C75.6237 43.3547 83.0306 45.0443 91.71 47.7871C109.048 53.2662 137.29 67.8069 169.734 86.1817C201.99 104.45 238.353 126.482 272.197 147.096L270.424 148.869C208.743 111.324 166.671 93.3763 135.039 83.3803C127.11 80.8745 120.308 79.3192 114.657 78.7158C109.014 78.1132 104.478 78.4552 101.107 79.7852C97.71 81.1256 95.5077 83.4677 94.5782 86.79C93.6576 90.0807 94 94.2793 95.5463 99.338C98.6392 109.456 106.574 123.087 119.009 139.828C131.454 156.579 148.435 176.483 169.662 199.152C212.118 244.491 270.252 299.495 338.839 359.223C407.426 418.952 484.323 481.537 562.619 541.356C640.915 601.175 718.16 656.354 787.413 701.937C856.663 747.516 915.764 782.08 959.403 802.513C981.218 812.728 998.852 819.263 1011.99 822.035C1018.56 823.421 1024.03 823.872 1028.36 823.358C1032.46 822.869 1035.58 821.504 1037.59 819.189L1083.62 855.156Z" stroke="#F5F5F5"/>
</svg>
